<?xml version="1.0" encoding="utf-8"?>
<!-- Generator: Adobe Illustrator 18.1.0, SVG Export Plug-In . SVG Version: 6.00 Build 0)  -->
<!DOCTYPE svg PUBLIC "-//W3C//DTD SVG 1.1//EN" "http://www.w3.org/Graphics/SVG/1.1/DTD/svg11.dtd">
<svg version="1.1" id="Layer_1" xmlns="http://www.w3.org/2000/svg" xmlns:xlink="http://www.w3.org/1999/xlink" x="0px" y="0px"
	 viewBox="0 0 192 35" enable-background="new 0 0 192 35" xml:space="preserve">
<g>
	<path fill="#232020" d="M98.4,21.8l6.6-6.6c0.6-0.6,0.6-1.5,0-2.1c-0.6-0.6-1.5-0.6-2.1,0l-6.6,6.6l-6.6-6.6
		c-0.6-0.6-1.5-0.6-2.1,0c-0.6,0.6-0.6,1.5,0,2.1l6.6,6.6l-6.6,6.6C87,29,87,30,87.6,30.6c0.3,0.3,0.7,0.4,1.1,0.4s0.8-0.1,1.1-0.4
		l6.6-6.6l6.6,6.6c0.3,0.3,0.7,0.4,1.1,0.4s0.8-0.1,1.1-0.4c0.6-0.6,0.6-1.5,0-2.1L98.4,21.8z"/>
	<g>
		<path fill="#232020" d="M16.9,1c-1.3,0-2.3,1-2.3,2.4v6.5h-4.5c-2.6,0-5,0.8-6.7,2.5C1.8,14,1,16.3,1,18.9v5.7
			c0,2.7,0.9,5,2.5,6.6c1.7,1.7,4,2.6,6.6,2.6c2.5,0,4.9-0.4,7.2-1.2c1.2-0.4,2-1.5,2-2.8V3.4C19.3,2,18.2,1,16.9,1z M5.7,25.1v-6.5
			c0-2.8,1.6-4.4,4.4-4.4h4.5v14.1c0,0.4-0.1,0.6-0.7,0.8c-1.2,0.3-2.5,0.4-3.8,0.4C7.3,29.5,5.7,27.9,5.7,25.1z"/>
		<path fill="#232020" d="M63.4,3.4c0-1.3,1-2.4,2.4-2.4c1.3,0,2.3,1,2.3,2.4v6.4h4.4c1.3,0,2.4,1,2.4,2.2c0,1.4-1,2.3-2.4,2.3h-4.4
			v12.4c0,1.7,0.9,2.8,2.1,2.8c1.3,0,1.5-0.4,2.4-0.4c1.1,0,2.3,0.8,2.3,2.2c0,1.1-0.9,2-2,2.2c-0.9,0.2-1.8,0.3-2.7,0.3
			c-3.7,0-6.8-2.9-6.8-7.1V3.4z"/>
		<path fill="#232020" d="M41.4,9.8c-7,0-12,5.2-12,12s5,12,12,12s12-5.2,12-12S48.4,9.8,41.4,9.8z M41.4,29.3
			c-4.1,0-7.3-3.2-7.3-7.5c0-4.2,3.2-7.5,7.3-7.5s7.3,3.2,7.3,7.5C48.7,26.1,45.5,29.3,41.4,29.3z"/>
	</g>
	<g>
		<path fill="#232020" d="M133,1c-1.3,0-2.3,1-2.3,2.4v6.5h-4.5c-2.6,0-5,0.8-6.7,2.5c-1.6,1.6-2.5,4-2.5,6.6v5.7
			c0,2.7,0.9,5,2.5,6.6c1.7,1.7,4,2.6,6.6,2.6c2.5,0,4.9-0.4,7.2-1.2c1.2-0.4,2-1.5,2-2.8V3.4C135.4,2,134.4,1,133,1z M121.8,25.1
			v-6.5c0-2.8,1.6-4.4,4.4-4.4h4.5v14.1c0,0.4-0.1,0.6-0.7,0.8c-1.2,0.3-2.5,0.4-3.8,0.4C123.5,29.5,121.8,27.9,121.8,25.1z"/>
		<path fill="#232020" d="M179.5,3.4c0-1.3,1-2.4,2.4-2.4c1.3,0,2.3,1,2.3,2.4v6.4h4.4c1.3,0,2.4,1,2.4,2.2c0,1.4-1,2.3-2.4,2.3
			h-4.4v12.4c0,1.7,0.9,2.8,2.1,2.8c1.3,0,1.5-0.4,2.4-0.4c1.1,0,2.3,0.8,2.3,2.2c0,1.1-0.9,2-2,2.2c-0.9,0.2-1.8,0.3-2.7,0.3
			c-3.7,0-6.8-2.9-6.8-7.1V3.4z"/>
		<path fill="#232020" d="M157.5,9.8c-7,0-12,5.2-12,12s5,12,12,12s12-5.2,12-12S164.6,9.8,157.5,9.8z M157.5,29.3
			c-4.1,0-7.3-3.2-7.3-7.5c0-4.2,3.2-7.5,7.3-7.5s7.3,3.2,7.3,7.5C164.9,26.1,161.6,29.3,157.5,29.3z"/>
	</g>
</g>
</svg>
